<?xml version="1.0" encoding="UTF-8"?>
<svg height="135" width="250" xmlns="http://www.w3.org/2000/svg">
    <g fill="#b1b2b4">
        <path d="M170.726 39.453v10.62h26.223V76.62h10.402V39.453zM46.22 68.168c0 2.601 1.192 4.01 3.034 4.01 1.95 0 3.142-1.517 3.142-4.01 0-2.6-1.192-4.009-3.142-4.009s-3.034 1.517-3.034 4.01m9.536 6.501h-3.36v-1.625c-.866 1.408-2.167 1.95-3.9 1.95-3.576 0-5.852-2.709-5.852-6.935 0-4.118 2.276-6.827 5.635-6.827 1.733 0 3.142.65 3.9 1.95v-6.5h3.577zM66.7 66.868c-.217-1.842-1.192-2.926-2.817-2.926s-2.71 1.084-2.818 2.926zm3.36 3.793c-.651 2.6-3.035 4.334-6.07 4.334-3.9 0-6.609-2.709-6.609-6.718s2.709-6.935 6.502-6.935 6.393 2.925 6.393 7.151v.542h-9.21c.108 2.167 1.083 3.36 3.033 3.36 1.3 0 2.06-.542 2.6-1.843h3.36zM79.27 65.46c-.217-1.193-.867-1.734-2.384-1.734-1.3 0-1.95.433-1.95 1.3s.433 1.084 3.142 1.625c3.684.759 5.093 1.842 5.093 4.01 0 2.709-2.276 4.334-5.96 4.334-3.793 0-5.852-1.517-6.068-4.551h3.359c.108 1.517.975 2.167 2.709 2.167 1.409 0 2.384-.65 2.384-1.625 0-.867-.434-1.192-2.926-1.734-2.384-.542-2.926-.759-3.684-1.192-1.084-.433-1.626-1.517-1.626-2.709 0-2.492 2.06-3.9 5.635-3.9 2.167 0 3.793.54 4.768 1.624.542.65.758 1.3.867 2.493zM88.372 74.67h-3.468V61.775h3.468zm0-14.845h-3.468V56.79h3.468zM93.573 67.843c0 2.384 1.084 3.793 2.926 3.793s2.926-1.517 2.926-3.793-1.192-3.684-3.034-3.684c-1.626 0-2.818 1.409-2.818 3.684m9.32 5.202c0 2.058-.218 3.142-.868 4.117-1.083 1.626-2.817 2.384-5.526 2.384-3.684 0-5.635-1.3-6.068-4.01h3.576c.216 1.193 1.083 1.626 2.6 1.626 2.06 0 2.818-.975 2.818-3.359v-1.517c-.867 1.3-2.168 1.95-3.901 1.95-3.36 0-5.527-2.492-5.527-6.393s2.276-6.501 5.635-6.501c1.734 0 2.817.542 3.901 2.059v-1.734h3.36zM108.527 63.617c1.083-1.517 2.384-2.167 4.334-2.167 1.626 0 3.034.65 3.685 1.734.541.867.65 1.625.65 3.359v8.127h-3.576v-7.477c0-.975-.109-1.409-.217-1.842-.217-.65-1.084-1.084-1.95-1.084-1.084 0-2.06.542-2.493 1.41-.216.54-.325 1.191-.325 2.275v6.718h-3.467V61.775h3.359zM127.382 68.385c-.542.325-.976.434-2.493.65-1.95.325-2.6.759-2.6 1.95 0 1.084.758 1.735 1.95 1.735.975 0 1.842-.326 2.492-1.084.434-.542.65-.975.65-1.842zm.325 6.285c-.217-.542-.217-.759-.217-1.3-1.084 1.083-2.492 1.625-4.226 1.625-2.818 0-4.551-1.517-4.551-3.9 0-1.626.867-2.818 2.384-3.468.65-.217 1.408-.434 3.25-.65 2.818-.326 3.143-.542 3.143-1.518 0-1.192-.759-1.625-2.276-1.625-1.625 0-2.275.542-2.492 1.95h-3.36c.218-2.817 2.276-4.334 5.96-4.334 2.06 0 3.577.434 4.552 1.192.867.759 1.083 1.409 1.083 3.142v5.31c0 1.95.109 2.71.434 3.576zM140.168 59.5c-.542-.109-.759-.109-1.192-.109-1.192 0-1.517.325-1.517 1.409v.975h2.6v2.384h-2.492V74.67H134.1V64.16h-2.167v-2.385h2.167v-.65c0-1.734.217-2.6.975-3.25.759-.76 1.842-1.084 3.36-1.084.541 0 .866 0 1.841.108z"/>
        <path d="M148.187 59.5c-.542-.109-.759-.109-1.192-.109-1.192 0-1.517.325-1.517 1.409v.975h2.6v2.384h-2.492V74.67h-3.468V64.16h-2.167v-2.385h2.167v-.65c0-1.734.217-2.6.976-3.25.758-.76 1.842-1.084 3.359-1.084.542 0 .867 0 1.842.108v2.6zM156.964 68.385c-.542.325-.975.434-2.492.65-1.951.325-2.601.759-2.601 1.95 0 1.084.758 1.735 1.95 1.735.976 0 1.842-.326 2.493-1.084.433-.542.541-.975.541-1.842zm.217 6.285c-.217-.542-.217-.759-.217-1.3-1.084 1.083-2.492 1.625-4.226 1.625-2.818 0-4.551-1.517-4.551-3.9 0-1.626.867-2.818 2.384-3.468.65-.217 1.408-.434 3.25-.65 2.818-.326 3.143-.542 3.143-1.518 0-1.192-.759-1.625-2.276-1.625-1.625 0-2.275.542-2.492 1.95h-3.36c.218-2.817 2.276-4.334 5.96-4.334 2.06 0 3.576.434 4.552 1.192.867.759 1.083 1.409 1.083 3.142v5.31c0 1.95.109 2.71.434 3.576zM166.174 74.67H162.6V61.775h3.575zm0-14.845H162.6V56.79h3.575zM176.685 64.81c-.65-.11-.975-.11-1.408-.11-1.3 0-2.384.651-2.926 1.626-.325.65-.434 1.517-.434 2.926v5.418h-3.575V61.775h3.359v2.384c.975-1.842 2.275-2.6 4.226-2.6.217 0 .433 0 .758.108zM185.246 65.46c-.217-1.193-.867-1.734-2.384-1.734-1.3 0-1.95.433-1.95 1.3s.433 1.084 3.142 1.625c3.684.759 5.093 1.842 5.093 4.01 0 2.709-2.276 4.334-5.96 4.334-3.793 0-5.852-1.517-6.068-4.551h3.359c.108 1.517.975 2.167 2.709 2.167 1.409 0 2.384-.65 2.384-1.625 0-.867-.434-1.192-2.926-1.734-2.384-.542-2.926-.759-3.684-1.192-.975-.542-1.626-1.625-1.626-2.817 0-2.493 2.06-3.901 5.635-3.901 2.167 0 3.793.542 4.768 1.625.542.65.759 1.3.867 2.492z"/>
    </g>
</svg>
